<svg width="362" height="65" viewBox="0 0 362 65" fill="none" xmlns="http://www.w3.org/2000/svg">
<g clip-path="url(#clip0_5_5935)">
<path d="M82.8118 32.7071C82.8118 32.7071 92.3558 28.127 92.3558 19.1209C92.3558 8.81349 85.7966 0.622526 70.0814 0.622526H0.132019V64.6195H70.0814C85.7966 64.6195 92.3558 56.4285 92.3558 46.1212C92.3558 37.1029 82.8118 32.7071 82.8118 32.7071ZM72.2478 48.1198H18.6544V40.7712H72.2478V48.1198ZM72.2478 24.5191H18.6544V17.1765H72.2478V24.5191ZM98.2923 19.3383C98.2923 9.74942 107.493 0.972748 116.029 0.972748H180.831V17.5358H118.199V24.5191H180.828L180.834 41.0701H118.199V48.0504H180.828V64.6135H116.029C107.493 64.6135 98.2923 55.8458 98.2923 46.251V19.3383ZM210.492 24.4708L246.899 0.619507H276.933L229.038 32.6829L276.743 64.6135H246.703L210.492 40.7622L210.486 64.6135H189.794V0.619507H210.486L210.492 24.4708ZM339.965 0.619507H292.639C279.939 0.619507 271.481 8.94935 271.481 18.6378V46.5529C271.481 56.2474 279.942 64.5682 292.639 64.5682H339.965C352.668 64.5682 361.132 56.2474 361.132 46.5529V18.6378C361.132 8.94935 352.668 0.619507 339.965 0.619507ZM341.587 47.9236H291.026V17.2701H341.59V47.9236H341.587Z" fill="#055B96"/>
</g>
<defs>
<clipPath id="clip0_5_5935">
<rect width="361" height="64" fill="white" transform="translate(0.132019 0.619507)"/>
</clipPath>
</defs>
</svg>
