<svg width="138" height="138" viewBox="0 0 138 138" fill="none" xmlns="http://www.w3.org/2000/svg">
<path d="M69.0173 0H68.9827C30.9379 0 0 30.9465 0 69C0 84.0938 4.8645 98.0835 13.1359 109.443L4.53675 135.076L31.0586 126.598C41.9692 133.826 54.9844 138 69.0173 138C107.062 138 138 107.045 138 69C138 30.9551 107.062 0 69.0173 0ZM109.167 97.4366C107.502 102.137 100.895 106.036 95.6254 107.174C92.0201 107.942 87.3109 108.554 71.4581 101.982C51.1807 93.5813 38.1225 72.9761 37.1048 71.6393C36.1301 70.3024 28.911 60.7286 28.911 50.8271C28.911 40.9256 33.9394 36.1043 35.9663 34.0343C37.6309 32.3351 40.3822 31.5589 43.0215 31.5589C43.8754 31.5589 44.643 31.602 45.333 31.6365C47.3599 31.7227 48.3776 31.8435 49.7145 35.0434C51.3791 39.054 55.4329 48.9555 55.9159 49.9733C56.4075 50.991 56.8991 52.371 56.2091 53.7079C55.5623 55.0879 54.993 55.7002 53.9753 56.8732C52.9575 58.0462 51.9915 58.9432 50.9737 60.2025C50.0422 61.2979 48.99 62.4709 50.163 64.4977C51.336 66.4815 55.3897 73.0969 61.3582 78.4099C69.0604 85.2667 75.3049 87.4575 77.5387 88.389C79.2034 89.079 81.1871 88.9151 82.4033 87.6214C83.9471 85.9568 85.8532 83.1968 87.7939 80.4799C89.1739 78.5306 90.9161 78.2891 92.7446 78.9791C94.6076 79.626 104.466 84.4991 106.493 85.5082C108.52 86.526 109.857 87.009 110.348 87.8629C110.831 88.7168 110.831 92.7274 109.167 97.4366Z" fill="white"/>
</svg>
