<svg width="251" height="58" viewBox="0 0 251 58" fill="none" xmlns="http://www.w3.org/2000/svg">
<g clip-path="url(#clip0_5_5937)">
<path fill-rule="evenodd" clip-rule="evenodd" d="M30.4968 39.1744C30.4968 36.0312 28.1773 33.8563 23.309 33.8563H13.5549V44.5744H23.5472C27.6217 44.5744 30.4968 43.1236 30.4968 39.1744ZM28.7417 17.9023C28.7417 14.8393 26.6604 12.7439 23.5472 12.7439H13.5549V22.8975H23.309C26.8191 22.8975 28.7417 20.3196 28.7417 17.9023ZM45.0397 40.7045C45.0397 49.8924 36.5732 55.9363 28.0185 55.9363H0.131989V1.38024H25.6991C35.5326 1.38024 42.6409 6.29258 42.6409 16.3695C42.6409 24.993 35.1357 27.5708 35.1357 27.5708C35.1357 27.652 45.0397 29.9088 45.0397 40.7045Z" fill="#EC1B24"/>
<path fill-rule="evenodd" clip-rule="evenodd" d="M86.7814 28.6195C86.7814 20.0772 82.8657 13.147 75.1223 13.147C67.3702 13.147 63.5338 20.0772 63.5338 28.6195C63.5338 37.2412 67.3702 44.1705 75.1223 44.1705C82.8657 44.1705 86.7814 37.2412 86.7814 28.6195ZM100.204 28.6195C100.204 44.6547 91.0147 57.2257 75.1223 57.2257C59.3005 57.2257 50.0315 44.6547 50.0315 28.6195C50.0315 12.6637 59.3006 0.0133133 75.1135 0.0133133C91.0147 0.0133133 100.204 12.6637 100.204 28.6195Z" fill="#EC1B24"/>
<path fill-rule="evenodd" clip-rule="evenodd" d="M147.061 39.4161C147.061 51.4235 136.196 57.2257 125.974 57.2257C114.148 57.2257 108.071 52.7129 103.282 46.9918L111.987 38.4486C115.664 43.1237 120.462 45.4608 125.815 45.4608C130.207 45.4608 133.162 43.2851 133.162 40.0608C133.162 36.5965 130.551 35.5171 123.408 34.0169L121.494 33.6147C112.895 31.8086 105.831 26.9271 105.831 17.1765C105.831 6.4602 114.544 0.0133133 126.054 0.0133133C135.799 0.0133133 142.114 4.20247 145.95 8.55037L137.475 16.9348C134.838 14.1136 130.842 11.8576 126.292 11.8576C123.179 11.8576 119.66 13.3084 119.66 16.9348C119.66 20.2385 123.32 21.4371 127.967 22.4143L129.89 22.8182C137.669 24.4506 147.061 26.8468 147.061 39.4161Z" fill="#EC1B24"/>
<path fill-rule="evenodd" clip-rule="evenodd" d="M198.954 45.3797C193.362 53.4378 188.168 57.2257 177.382 57.2257C162.045 57.2257 152.132 44.4933 152.132 28.2967C152.132 12.9053 161.084 0.0926743 177.54 0.0926743C186.571 0.0926743 193.045 3.63802 198.557 11.9387L187.533 19.272C185.293 15.4029 182.417 13.147 177.62 13.147C171.552 13.147 165.714 18.5752 165.714 28.2967C165.714 39.1903 172.028 44.1705 178.025 44.1705C183.211 44.1705 185.61 41.5918 187.85 37.885L198.954 45.3797Z" fill="#EC1B24"/>
<path fill-rule="evenodd" clip-rule="evenodd" d="M250.132 55.9363H235.748V34.4208H219.203V55.9363H204.907V1.38024H219.203V21.4467H235.748V1.38024H250.132V55.9363Z" fill="#EC1B24"/>
</g>
<defs>
<clipPath id="clip0_5_5937">
<rect width="250" height="57.2124" fill="white" transform="translate(0.132019 0.0133057)"/>
</clipPath>
</defs>
</svg>
