<svg width="63" height="22" viewBox="0 0 63 22" fill="none" xmlns="http://www.w3.org/2000/svg">
<path d="M0.368 0.199999H6.032V12.608H13.616V17H0.368V0.199999ZM21.9485 17.24C20.4925 17.24 19.1805 16.952 18.0125 16.376C16.8605 15.784 15.9565 14.976 15.3005 13.952C14.6445 12.912 14.3165 11.736 14.3165 10.424C14.3165 9.112 14.6445 7.944 15.3005 6.92C15.9565 5.88 16.8605 5.072 18.0125 4.496C19.1805 3.92 20.4925 3.632 21.9485 3.632C23.4205 3.632 24.7325 3.92 25.8845 4.496C27.0525 5.072 27.9565 5.88 28.5965 6.92C29.2525 7.944 29.5805 9.112 29.5805 10.424C29.5805 11.736 29.2525 12.912 28.5965 13.952C27.9565 14.976 27.0525 15.784 25.8845 16.376C24.7325 16.952 23.4205 17.24 21.9485 17.24ZM21.9485 13.016C22.5725 13.016 23.0845 12.792 23.4845 12.344C23.8845 11.88 24.0845 11.24 24.0845 10.424C24.0845 9.608 23.8845 8.976 23.4845 8.528C23.0845 8.08 22.5725 7.856 21.9485 7.856C21.3245 7.856 20.8125 8.08 20.4125 8.528C20.0125 8.976 19.8125 9.608 19.8125 10.424C19.8125 11.24 20.0125 11.88 20.4125 12.344C20.8125 12.792 21.3245 13.016 21.9485 13.016ZM45.9421 3.872V14.384C45.9421 16.88 45.2461 18.752 43.8541 20C42.4781 21.264 40.5101 21.896 37.9501 21.896C36.6381 21.896 35.4141 21.752 34.2781 21.464C33.1421 21.192 32.1741 20.792 31.3741 20.264L33.1981 16.568C33.7101 16.952 34.3581 17.264 35.1421 17.504C35.9261 17.744 36.6781 17.864 37.3981 17.864C38.4861 17.864 39.2781 17.632 39.7741 17.168C40.2701 16.704 40.5181 16.024 40.5181 15.128V14.888C39.7021 15.816 38.4941 16.28 36.8941 16.28C35.7741 16.28 34.7261 16.024 33.7501 15.512C32.7901 14.984 32.0221 14.24 31.4461 13.28C30.8701 12.304 30.5821 11.192 30.5821 9.944C30.5821 8.696 30.8701 7.592 31.4461 6.632C32.0221 5.672 32.7901 4.936 33.7501 4.424C34.7261 3.896 35.7741 3.632 36.8941 3.632C38.6861 3.632 39.9821 4.208 40.7821 5.36V3.872H45.9421ZM38.3341 12.056C38.9741 12.056 39.5021 11.864 39.9181 11.48C40.3501 11.08 40.5661 10.568 40.5661 9.944C40.5661 9.32 40.3501 8.816 39.9181 8.432C39.5021 8.048 38.9741 7.856 38.3341 7.856C37.6781 7.856 37.1341 8.048 36.7021 8.432C36.2861 8.816 36.0781 9.32 36.0781 9.944C36.0781 10.568 36.2941 11.08 36.7261 11.48C37.1581 11.864 37.6941 12.056 38.3341 12.056ZM55.2766 17.24C53.8206 17.24 52.5086 16.952 51.3406 16.376C50.1886 15.784 49.2846 14.976 48.6286 13.952C47.9726 12.912 47.6446 11.736 47.6446 10.424C47.6446 9.112 47.9726 7.944 48.6286 6.92C49.2846 5.88 50.1886 5.072 51.3406 4.496C52.5086 3.92 53.8206 3.632 55.2766 3.632C56.7486 3.632 58.0606 3.92 59.2126 4.496C60.3806 5.072 61.2846 5.88 61.9246 6.92C62.5806 7.944 62.9086 9.112 62.9086 10.424C62.9086 11.736 62.5806 12.912 61.9246 13.952C61.2846 14.976 60.3806 15.784 59.2126 16.376C58.0606 16.952 56.7486 17.24 55.2766 17.24ZM55.2766 13.016C55.9006 13.016 56.4126 12.792 56.8126 12.344C57.2126 11.88 57.4126 11.24 57.4126 10.424C57.4126 9.608 57.2126 8.976 56.8126 8.528C56.4126 8.08 55.9006 7.856 55.2766 7.856C54.6526 7.856 54.1406 8.08 53.7406 8.528C53.3406 8.976 53.1406 9.608 53.1406 10.424C53.1406 11.24 53.3406 11.88 53.7406 12.344C54.1406 12.792 54.6526 13.016 55.2766 13.016Z" fill="#0447A9"/>
</svg>
