<svg width="232" height="78" viewBox="0 0 232 78" fill="none" xmlns="http://www.w3.org/2000/svg">
<g clip-path="url(#clip0_5_5920)">
<path d="M230.989 18.4551C234.135 36.5607 185.042 60.2699 121.323 71.4103C57.6146 82.5507 3.41702 76.899 0.275263 58.7839C-2.86649 40.6784 46.2413 16.9739 109.95 5.83831C173.664 -5.31166 227.852 0.344819 230.989 18.4551Z" fill="#034EA2"/>
<path d="M171.023 45.3282L170.699 26.5036H176.61V50.232H168.111L162.209 30.7603H162.08L162.41 50.232H156.532V26.5036H165.403L170.894 45.3282H171.023Z" fill="white"/>
<path d="M63.5448 28.7278L60.2741 50.4813H53.8235L58.2497 26.5036H68.8734L73.2852 50.4813H66.8584L63.6785 28.7278H63.5448Z" fill="white"/>
<path d="M91.3956 44.8344L94.3464 26.5036H104.087L104.602 50.4813H98.6341L98.4765 28.9244H98.3524L94.3607 50.4813H88.3016L84.3052 28.9244H84.1763L84.0283 50.4813H78.0456L78.5756 26.5036H88.3207L91.2667 44.8344H91.3956Z" fill="white"/>
<path d="M43.768 43.7175C44.002 44.2975 43.9303 45.0454 43.8205 45.496C43.62 46.2917 43.0804 47.1066 41.4952 47.1066C39.996 47.1066 39.0888 46.2438 39.0888 44.9303V42.6102H32.6811L32.6764 44.4653C32.6764 49.8102 36.8685 51.4257 41.3615 51.4257C45.6826 51.4257 49.2398 49.9444 49.8032 45.9466C50.0945 43.8757 49.8748 42.5191 49.7793 42.0062C48.7719 36.9873 39.7047 35.4869 39.0315 32.6826C38.9169 32.2032 38.9503 31.6903 39.0076 31.4171C39.1747 30.6549 39.6952 29.8112 41.1897 29.8112C42.5839 29.8112 43.4099 30.6789 43.4099 31.9875C43.4099 32.4285 43.4099 33.4687 43.4099 33.4687H49.3639V31.7862C49.3639 26.5611 44.6943 25.7462 41.3138 25.7462C37.0643 25.7462 33.5931 27.1555 32.9581 31.0576C32.7862 32.1361 32.7623 33.0948 33.0106 34.298C34.0562 39.1923 42.5361 40.6112 43.768 43.7175Z" fill="white"/>
<path d="M121.428 43.6744C121.662 44.2496 121.586 44.9782 121.481 45.4288C121.285 46.2246 120.75 47.0251 119.175 47.0251C117.699 47.0251 116.797 46.1623 116.797 44.8776L116.792 42.5766H110.451L110.442 44.4078C110.442 49.7 114.596 51.2962 119.041 51.2962C123.314 51.2962 126.838 49.8342 127.397 45.8746C127.688 43.8182 127.483 42.4808 127.378 41.9774C126.375 37.0064 117.403 35.5204 116.735 32.7401C116.62 32.2607 116.654 31.7574 116.711 31.4986C116.883 30.7268 117.394 29.9071 118.874 29.9071C120.259 29.9071 121.066 30.7508 121.066 32.0546C121.066 32.4908 121.066 33.5215 121.066 33.5215H126.977V31.8533C126.977 26.6858 122.345 25.8756 118.993 25.8756C114.792 25.8756 111.349 27.2658 110.728 31.1438C110.557 32.208 110.537 33.1476 110.786 34.346C111.812 39.1923 120.211 40.6017 121.428 43.6744Z" fill="white"/>
<path d="M141.487 46.8957C143.144 46.8957 143.66 45.7452 143.774 45.1556C143.822 44.8967 143.836 44.5516 143.831 44.24V26.494H149.871V43.6935C149.886 44.1346 149.843 45.0406 149.819 45.2659C149.394 49.7431 145.87 51.1956 141.482 51.1956C137.09 51.1956 133.561 49.7431 133.141 45.2659C133.122 45.0406 133.079 44.1298 133.088 43.6935V26.494H139.124V44.2352C139.124 44.5468 139.133 44.8967 139.181 45.1508C139.315 45.7404 139.816 46.8957 141.487 46.8957Z" fill="white"/>
<path d="M191.311 46.6416C193.039 46.6416 193.646 45.5439 193.756 44.9063C193.799 44.6331 193.813 44.2976 193.808 43.9956V40.5154H191.359V37.016H199.829V43.4539C199.824 43.9045 199.815 44.2352 199.743 45.0358C199.347 49.398 195.575 50.9559 191.344 50.9559C187.105 50.9559 183.342 49.398 182.936 45.0358C182.869 44.2352 182.86 43.9045 182.85 43.4539L182.855 33.3585C182.855 32.9319 182.908 32.1793 182.955 31.7766C183.485 27.2946 187.105 25.8517 191.344 25.8517C195.58 25.8517 199.29 27.285 199.729 31.7766C199.805 32.5388 199.781 33.3585 199.781 33.3585V34.159H193.76V32.8168C193.765 32.8216 193.751 32.2464 193.684 31.906C193.584 31.3739 193.125 30.1564 191.301 30.1564C189.559 30.1564 189.053 31.3068 188.924 31.906C188.852 32.2224 188.823 32.649 188.823 33.0373V44.0051C188.819 44.3071 188.838 44.6427 188.885 44.9159C188.981 45.5439 189.583 46.6416 191.311 46.6416Z" fill="white"/>
</g>
<defs>
<clipPath id="clip0_5_5920">
<rect width="231" height="77" fill="white" transform="translate(0.132004 0.119507)"/>
</clipPath>
</defs>
</svg>
